<mxfile host="app.diagrams.net" agent="Mozilla/5.0 (Windows NT 10.0; Win64; x64) AppleWebKit/537.36 (KHTML, like Gecko) Chrome/129.0.0.0 Safari/537.36" version="24.7.17">
  <diagram name="Page-1" id="58cdce13-f638-feb5-8d6f-7d28b1aa9fa0">
    <mxGraphModel dx="1195" dy="615" grid="1" gridSize="10" guides="1" tooltips="1" connect="1" arrows="1" fold="1" page="1" pageScale="1" pageWidth="1100" pageHeight="850" background="none" math="0" shadow="0">
      <root>
        <mxCell id="0" />
        <mxCell id="1" parent="0" />
        <mxCell id="382b91b5511bd0f7-1" value="" style="ellipse;html=1;shape=startState;fillColor=#000000;strokeColor=#ff0000;rounded=1;shadow=0;comic=0;labelBackgroundColor=none;fontFamily=Verdana;fontSize=12;fontColor=#000000;align=center;direction=south;" parent="1" vertex="1">
          <mxGeometry x="130" y="135" width="30" height="30" as="geometry" />
        </mxCell>
        <mxCell id="382b91b5511bd0f7-5" value="&lt;div&gt;Sent&lt;/div&gt;&lt;div&gt;&lt;b&gt;entry&lt;/b&gt;:&amp;nbsp;SendDate = now&lt;/div&gt;&lt;div&gt;&amp;nbsp;установить courier company info&lt;br&gt;&lt;/div&gt;&lt;div&gt;установитьtrack number&lt;/div&gt;" style="rounded=1;whiteSpace=wrap;html=1;arcSize=24;fillColor=#ffffc0;strokeColor=#ff0000;shadow=0;comic=0;labelBackgroundColor=none;fontFamily=Verdana;fontSize=12;fontColor=#000000;align=center;" parent="1" vertex="1">
          <mxGeometry x="780" y="400" width="170" height="120" as="geometry" />
        </mxCell>
        <mxCell id="382b91b5511bd0f7-6" value="&lt;div&gt;Created&amp;nbsp;&lt;/div&gt;" style="rounded=1;whiteSpace=wrap;html=1;arcSize=24;fillColor=#ffffc0;strokeColor=#ff0000;shadow=0;comic=0;labelBackgroundColor=none;fontFamily=Verdana;fontSize=12;fontColor=#000000;align=center;" parent="1" vertex="1">
          <mxGeometry x="270" y="210" width="120" height="60" as="geometry" />
        </mxCell>
        <mxCell id="382b91b5511bd0f7-7" value="&lt;div&gt;InProgress&lt;/div&gt;" style="rounded=1;whiteSpace=wrap;html=1;arcSize=24;fillColor=#ffffc0;strokeColor=#ff0000;shadow=0;comic=0;labelBackgroundColor=none;fontFamily=Verdana;fontSize=12;fontColor=#000000;align=center;" parent="1" vertex="1">
          <mxGeometry x="450" y="320" width="120" height="60" as="geometry" />
        </mxCell>
        <mxCell id="3cde6dad864a17aa-13" style="edgeStyle=elbowEdgeStyle;html=1;labelBackgroundColor=none;endArrow=open;endSize=8;strokeColor=#ff0000;fontFamily=Verdana;fontSize=12;align=left;exitX=0.5;exitY=1;exitDx=0;exitDy=0;entryX=1;entryY=0.75;entryDx=0;entryDy=0;" parent="1" target="382b91b5511bd0f7-9" edge="1">
          <mxGeometry relative="1" as="geometry">
            <mxPoint x="780" y="440" as="sourcePoint" />
            <mxPoint x="250" y="510" as="targetPoint" />
            <Array as="points">
              <mxPoint x="670" y="480" />
            </Array>
          </mxGeometry>
        </mxCell>
        <mxCell id="382b91b5511bd0f7-9" value="Canceled&lt;div&gt;entry: отменить траназакцию&lt;/div&gt;&lt;div&gt;вернуть сумму на баланс&lt;/div&gt;" style="rounded=1;whiteSpace=wrap;html=1;arcSize=24;fillColor=#ffffc0;strokeColor=#ff0000;shadow=0;comic=0;labelBackgroundColor=none;fontFamily=Verdana;fontSize=12;fontColor=#000000;align=center;" parent="1" vertex="1">
          <mxGeometry x="130" y="460" width="180" height="60" as="geometry" />
        </mxCell>
        <mxCell id="382b91b5511bd0f7-10" value="&lt;div&gt;Closed&amp;nbsp;&lt;/div&gt;&lt;div&gt;exit: отправить уведомление о доставке&lt;/div&gt;" style="rounded=1;whiteSpace=wrap;html=1;arcSize=24;fillColor=#ffffc0;strokeColor=#ff0000;shadow=0;comic=0;labelBackgroundColor=none;fontFamily=Verdana;fontSize=12;fontColor=#000000;align=center;" parent="1" vertex="1">
          <mxGeometry x="550" y="560" width="120" height="60" as="geometry" />
        </mxCell>
        <mxCell id="2a3bc250acf0617d-9" style="edgeStyle=orthogonalEdgeStyle;html=1;labelBackgroundColor=none;endArrow=open;endSize=8;strokeColor=#ff0000;fontFamily=Verdana;fontSize=12;align=left;" parent="1" source="382b91b5511bd0f7-1" target="382b91b5511bd0f7-6" edge="1">
          <mxGeometry relative="1" as="geometry" />
        </mxCell>
        <mxCell id="24f968d109e7d6b4-3" value="" style="ellipse;html=1;shape=endState;fillColor=#000000;strokeColor=#ff0000;rounded=1;shadow=0;comic=0;labelBackgroundColor=none;fontFamily=Verdana;fontSize=12;fontColor=#000000;align=center;" parent="1" vertex="1">
          <mxGeometry x="430" y="710" width="30" height="30" as="geometry" />
        </mxCell>
        <mxCell id="1Mzbr1FjEaODp7JfejLL-1" style="edgeStyle=elbowEdgeStyle;html=1;labelBackgroundColor=none;endArrow=open;endSize=8;strokeColor=#ff0000;fontFamily=Verdana;fontSize=12;align=left;exitX=-0.008;exitY=0.617;exitDx=0;exitDy=0;exitPerimeter=0;" edge="1" parent="1" source="382b91b5511bd0f7-6">
          <mxGeometry relative="1" as="geometry">
            <mxPoint x="150" y="270" as="sourcePoint" />
            <mxPoint x="210" y="460" as="targetPoint" />
            <Array as="points">
              <mxPoint x="210" y="350" />
            </Array>
          </mxGeometry>
        </mxCell>
        <mxCell id="1Mzbr1FjEaODp7JfejLL-2" style="edgeStyle=elbowEdgeStyle;html=1;labelBackgroundColor=none;endArrow=open;endSize=8;strokeColor=#ff0000;fontFamily=Verdana;fontSize=12;align=left;" edge="1" parent="1">
          <mxGeometry relative="1" as="geometry">
            <mxPoint x="510" y="380" as="sourcePoint" />
            <mxPoint x="310" y="480" as="targetPoint" />
            <Array as="points">
              <mxPoint x="510" y="480" />
            </Array>
          </mxGeometry>
        </mxCell>
        <mxCell id="1Mzbr1FjEaODp7JfejLL-4" style="edgeStyle=elbowEdgeStyle;html=1;labelBackgroundColor=none;endArrow=open;endSize=8;strokeColor=#ff0000;fontFamily=Verdana;fontSize=12;align=left;exitX=1;exitY=0.5;exitDx=0;exitDy=0;" edge="1" parent="1" source="382b91b5511bd0f7-7">
          <mxGeometry relative="1" as="geometry">
            <mxPoint x="580" y="390" as="sourcePoint" />
            <mxPoint x="780" y="430" as="targetPoint" />
            <Array as="points">
              <mxPoint x="700" y="400" />
            </Array>
          </mxGeometry>
        </mxCell>
        <mxCell id="1Mzbr1FjEaODp7JfejLL-5" style="edgeStyle=elbowEdgeStyle;html=1;labelBackgroundColor=none;endArrow=open;endSize=8;strokeColor=#ff0000;fontFamily=Verdana;fontSize=12;align=left;entryX=0.5;entryY=0;entryDx=0;entryDy=0;exitX=1;exitY=0.5;exitDx=0;exitDy=0;" edge="1" parent="1" source="382b91b5511bd0f7-6" target="382b91b5511bd0f7-7">
          <mxGeometry relative="1" as="geometry">
            <mxPoint x="420" y="49.99999999999997" as="sourcePoint" />
            <mxPoint x="570.04" y="87.97999999999999" as="targetPoint" />
            <Array as="points">
              <mxPoint x="510" y="290" />
            </Array>
          </mxGeometry>
        </mxCell>
        <mxCell id="1Mzbr1FjEaODp7JfejLL-7" style="edgeStyle=elbowEdgeStyle;html=1;labelBackgroundColor=none;endArrow=open;endSize=8;strokeColor=#ff0000;fontFamily=Verdana;fontSize=12;align=left;exitX=0.5;exitY=1;exitDx=0;exitDy=0;entryX=1;entryY=1;entryDx=0;entryDy=0;" edge="1" parent="1" source="382b91b5511bd0f7-10">
          <mxGeometry relative="1" as="geometry">
            <mxPoint x="604.39" y="580" as="sourcePoint" />
            <mxPoint x="459.99660171779817" y="725.6066017177982" as="targetPoint" />
            <Array as="points">
              <mxPoint x="604.39" y="640" />
            </Array>
          </mxGeometry>
        </mxCell>
        <mxCell id="1Mzbr1FjEaODp7JfejLL-13" style="edgeStyle=elbowEdgeStyle;html=1;labelBackgroundColor=none;endArrow=open;endSize=8;strokeColor=#ff0000;fontFamily=Verdana;fontSize=12;align=left;entryX=0;entryY=0.5;entryDx=0;entryDy=0;exitX=0.5;exitY=1;exitDx=0;exitDy=0;" edge="1" parent="1" source="382b91b5511bd0f7-9" target="24f968d109e7d6b4-3">
          <mxGeometry relative="1" as="geometry">
            <mxPoint x="220" y="530" as="sourcePoint" />
            <mxPoint x="469.99660171779817" y="735.6066017177982" as="targetPoint" />
            <Array as="points">
              <mxPoint x="220" y="630" />
            </Array>
          </mxGeometry>
        </mxCell>
        <mxCell id="1Mzbr1FjEaODp7JfejLL-15" style="edgeStyle=elbowEdgeStyle;html=1;labelBackgroundColor=none;endArrow=open;endSize=8;strokeColor=#ff0000;fontFamily=Verdana;fontSize=12;align=left;exitX=0.5;exitY=1;exitDx=0;exitDy=0;entryX=1;entryY=0.5;entryDx=0;entryDy=0;" edge="1" parent="1" source="382b91b5511bd0f7-5" target="382b91b5511bd0f7-10">
          <mxGeometry relative="1" as="geometry">
            <mxPoint x="620" y="630" as="sourcePoint" />
            <mxPoint x="469.99660171779817" y="735.6066017177982" as="targetPoint" />
            <Array as="points">
              <mxPoint x="840" y="530" />
            </Array>
          </mxGeometry>
        </mxCell>
        <mxCell id="1Mzbr1FjEaODp7JfejLL-16" value="Пользователь отменил заказ" style="shape=note;size=15;align=left;spacingLeft=10;html=1;whiteSpace=wrap;" vertex="1" parent="1">
          <mxGeometry x="30" y="385" width="150" height="40" as="geometry" />
        </mxCell>
        <mxCell id="1Mzbr1FjEaODp7JfejLL-17" value="" style="edgeStyle=none;endArrow=none;exitX=0.4;exitY=0;dashed=1;html=1;rounded=0;" edge="1" source="1Mzbr1FjEaODp7JfejLL-16" parent="1">
          <mxGeometry x="1" relative="1" as="geometry">
            <mxPoint x="210" y="300" as="targetPoint" />
            <Array as="points" />
          </mxGeometry>
        </mxCell>
        <mxCell id="1Mzbr1FjEaODp7JfejLL-19" value="Trigger: Пользователь подтвердил получение заказа&lt;div&gt;Condition: заказ существует, статус заказа Sent&lt;/div&gt;" style="shape=note;size=15;align=left;spacingLeft=10;html=1;whiteSpace=wrap;" vertex="1" parent="1">
          <mxGeometry x="820" y="645" width="150" height="105" as="geometry" />
        </mxCell>
        <mxCell id="1Mzbr1FjEaODp7JfejLL-20" value="" style="edgeStyle=none;endArrow=none;exitX=0.4;exitY=0;dashed=1;html=1;rounded=0;" edge="1" parent="1" source="1Mzbr1FjEaODp7JfejLL-19">
          <mxGeometry x="1" relative="1" as="geometry">
            <mxPoint x="840" y="540" as="targetPoint" />
            <Array as="points" />
          </mxGeometry>
        </mxCell>
        <mxCell id="1Mzbr1FjEaODp7JfejLL-21" value="Trigger: Менеджер взял заказ в обработку&lt;br&gt;Condition: заказ создан" style="shape=note;size=15;align=left;spacingLeft=10;html=1;whiteSpace=wrap;" vertex="1" parent="1">
          <mxGeometry x="420" y="90" width="150" height="60" as="geometry" />
        </mxCell>
        <mxCell id="1Mzbr1FjEaODp7JfejLL-22" value="" style="edgeStyle=none;endArrow=none;exitX=0.46;exitY=1.05;dashed=1;html=1;rounded=0;exitDx=0;exitDy=0;exitPerimeter=0;" edge="1" parent="1" source="1Mzbr1FjEaODp7JfejLL-21">
          <mxGeometry x="1" relative="1" as="geometry">
            <mxPoint x="500" y="240" as="targetPoint" />
            <Array as="points" />
          </mxGeometry>
        </mxCell>
        <mxCell id="1Mzbr1FjEaODp7JfejLL-23" value="Trigger: Менеджер отправил заказ&lt;br&gt;Condition: заказ создан и в работе" style="shape=note;size=15;align=left;spacingLeft=10;html=1;whiteSpace=wrap;" vertex="1" parent="1">
          <mxGeometry x="620" y="220" width="150" height="60" as="geometry" />
        </mxCell>
        <mxCell id="1Mzbr1FjEaODp7JfejLL-24" value="" style="edgeStyle=none;endArrow=none;exitX=0.5;exitY=1;dashed=1;html=1;rounded=0;exitDx=0;exitDy=0;exitPerimeter=0;" edge="1" parent="1" source="1Mzbr1FjEaODp7JfejLL-23">
          <mxGeometry x="1" relative="1" as="geometry">
            <mxPoint x="640" y="350" as="targetPoint" />
            <Array as="points" />
            <mxPoint x="499" y="163" as="sourcePoint" />
          </mxGeometry>
        </mxCell>
        <mxCell id="1Mzbr1FjEaODp7JfejLL-25" value="Пользователь отменил заказ" style="shape=note;size=15;align=left;spacingLeft=10;html=1;whiteSpace=wrap;" vertex="1" parent="1">
          <mxGeometry x="270" y="357.5" width="150" height="40" as="geometry" />
        </mxCell>
        <mxCell id="1Mzbr1FjEaODp7JfejLL-26" value="" style="edgeStyle=none;endArrow=none;exitX=0.5;exitY=1;dashed=1;html=1;rounded=0;exitDx=0;exitDy=0;exitPerimeter=0;" edge="1" parent="1" source="1Mzbr1FjEaODp7JfejLL-25">
          <mxGeometry x="1" relative="1" as="geometry">
            <mxPoint x="490" y="480" as="targetPoint" />
            <Array as="points" />
          </mxGeometry>
        </mxCell>
      </root>
    </mxGraphModel>
  </diagram>
</mxfile>
